<?xml version="1.0" standalone="no"?>
<!DOCTYPE svg PUBLIC "-//W3C//DTD SVG 1.1//EN" "http://www.w3.org/Graphics/SVG/1.1/DTD/svg11.dtd" >
<svg xmlns="http://www.w3.org/2000/svg">
    <metadata></metadata>
    <defs>
        <font id="pf_din_text_cond_proregular" horiz-adv-x="901">
            <font-face units-per-em="2048" ascent="1536" descent="-512"/>
            <missing-glyph horiz-adv-x="430"/>
            <glyph unicode="&#xfb01;" horiz-adv-x="890"
                   d="M35 877v137h112v184q0 82 26 140.5t71 95t103.5 53t123.5 16.5q197 0 303 -119l-106 -114q-66 76 -197 76q-82 0 -119 -39t-37 -109v-184h457v-1014h-166v877h-291v-877h-168v877h-112z"/>
            <glyph unicode="&#xfb02;" horiz-adv-x="950"
                   d="M35 877v137h112v184q0 82 25 141.5t69 97.5t103 55t127 17q39 0 115 -9t186 -44v-1198q0 -57 21.5 -86t78.5 -29h37v-149h-53q-121 0 -185.5 51t-64.5 191v1095q-43 12 -73.5 16.5t-63.5 4.5q-82 0 -118 -41t-36 -119v-178h189v-137h-189v-877h-168v877h-112z"/>
            <glyph unicode="&#xfb03;" horiz-adv-x="1353"
                   d="M35 877v137h112v166q0 82 26 139t71 94t103.5 53.5t123.5 16.5q61 0 113.5 -13.5t93.5 -35.5q45 45 108.5 64.5t139.5 19.5q201 0 305 -117l-109 -115q-66 76 -196 76q-82 0 -119 -40t-37 -108v-200h457v-1014h-168v877h-289v-877h-168v877h-287v-877h-168v877h-112z M315 1014h287v200q0 39 6 74q-29 16 -62.5 26.5t-74.5 10.5q-82 0 -119 -39t-37 -108v-164z"/>
            <glyph unicode="&#xfb04;" horiz-adv-x="1402"
                   d="M35 877v137h112v164q0 82 26 139t71 94t103 53.5t124 16.5q53 0 109.5 -11.5t101.5 -35.5q45 43 106.5 63.5t135.5 20.5q39 0 115.5 -9.5t185.5 -44.5v-1206q0 -57 21.5 -86t78.5 -29h37v-149h-51q-121 0 -186.5 51t-65.5 191v1103q-43 12 -73 16.5t-62 4.5 q-84 0 -120 -41t-36 -119v-186h186v-137h-186v-877h-166v877h-287v-877h-168v877h-112zM315 1014h287v192q0 23 2 43.5t6 40.5q-61 35 -139 35q-82 0 -119 -40t-37 -107v-164z"/>
            <glyph horiz-adv-x="0"/>
            <glyph horiz-adv-x="682"/>
            <glyph unicode=" " horiz-adv-x="430"/>
            <glyph unicode="&#x09;" horiz-adv-x="430"/>
            <glyph unicode="&#xa0;" horiz-adv-x="430"/>
            <glyph unicode="!" horiz-adv-x="481" d="M156 0v182h174v-182h-174zM160 1425h162l-17 -1063h-129z"/>
            <glyph unicode="&#x22;" horiz-adv-x="573" d="M102 1020v405h127v-405h-127zM344 1020v405h127v-405h-127z"/>
            <glyph unicode="#"
                   d="M23 451v112h176l49 309h-158v113h176l72 442h117l-72 -442h205l71 442h117l-74 -442h166v-113h-184l-49 -309h166v-112h-185l-71 -451h-117l72 451h-205l-72 -451h-117l74 451h-157zM313 563h205l51 309h-204z"/>
            <glyph unicode="$"
                   d="M55 231l135 84q29 -63 82.5 -111t137.5 -59v506q-168 63 -249 150.5t-81 236.5q0 160 86 265.5t244 119.5v166h90v-166q129 -10 210 -73.5t113 -139.5l-137 -90q-27 59 -73 97t-113 49v-469q96 -23 160.5 -60t102.5 -88t54.5 -116.5t16.5 -145.5q0 -174 -84 -279.5 t-250 -117.5v-205h-90v205q-131 8 -221.5 76.5t-133.5 164.5zM250 1036q0 -78 41 -125t119 -82v439q-82 -14 -121 -78t-39 -154zM500 147q94 14 130 79t36 159q0 51 -10.5 89t-32 64.5t-52 46t-71.5 36.5v-474z"/>
            <glyph unicode="%" horiz-adv-x="1310"
                   d="M80 782v430q0 100 66.5 160t164.5 60q100 0 166 -59.5t66 -160.5v-430q0 -102 -67.5 -160.5t-164.5 -58.5q-96 0 -163.5 58.5t-67.5 160.5zM209 782q0 -47 27.5 -74.5t74.5 -27.5t75 27.5t28 74.5v430q0 43 -28 72t-75 29t-74.5 -29t-27.5 -72v-430zM211 -35l756 1497 h116l-757 -1497h-115zM770 203v446q0 49 18.5 89t51 66.5t73.5 41t88 14.5q45 0 87 -14.5t75 -41t51.5 -66.5t18.5 -89v-446q0 -51 -18.5 -90t-51.5 -66t-74.5 -41t-87.5 -14q-47 0 -88 14t-73.5 41t-51 66t-18.5 90zM899 203q0 -47 27.5 -70.5t74.5 -23.5t75 23.5t28 70.5 v446q0 43 -27.5 67.5t-75.5 24.5q-47 0 -74.5 -24.5t-27.5 -67.5v-446z"/>
            <glyph unicode="&#x26;" horiz-adv-x="1122"
                   d="M113 344q0 131 62.5 231.5t186.5 196.5q-25 41 -51 81t-46.5 83t-34 88t-13.5 96q0 68 21.5 126.5t62.5 101.5t101.5 67.5t138.5 24.5q94 0 169.5 -32t131.5 -108l-119 -98q-47 51 -87 68.5t-99 17.5q-82 0 -120 -51t-38 -115q0 -37 21.5 -90t56.5 -114.5t79 -129 t91 -134t92 -131t82 -117.5q29 57 42 112t23 115l154 -12q-12 -88 -41 -181.5t-78 -177.5q43 -66 89 -132.5t91 -129.5h-194l-94 133q-74 -78 -158 -111.5t-176 -33.5q-82 0 -146.5 27.5t-108.5 74.5t-67.5 112.5t-23.5 141.5zM274 354q0 -90 53.5 -152.5t153.5 -62.5 q66 0 128.5 36t99.5 81q-66 98 -131.5 196.5t-133.5 196.5q-82 -66 -126 -137.5t-44 -157.5z"/>
            <glyph unicode="'" horiz-adv-x="423" d="M145 1020v405h127v-405h-127z"/>
            <glyph unicode="(" horiz-adv-x="512"
                   d="M88 625q0 131 25.5 250.5t70.5 227t103.5 203t124.5 177.5l86 -47q-55 -84 -100.5 -181.5t-77 -202t-49 -211t-17.5 -208.5q0 -223 67.5 -435t174.5 -378l-78 -56q-66 82 -125.5 178.5t-105.5 205t-72.5 228.5t-26.5 249z"/>
            <glyph unicode=")" horiz-adv-x="512"
                   d="M55 1434q23 12 43.5 24t42.5 23q66 -82 124.5 -177.5t103.5 -203t70.5 -227t25.5 -250.5q0 -129 -26.5 -248t-73 -227.5t-105.5 -205t-125 -178.5l-78 56q53 82 98.5 177t77 199.5t49 215t17.5 221.5q0 102 -17.5 208.5t-49 210t-76.5 201t-101 181.5z"/>
            <glyph unicode="*" horiz-adv-x="729"
                   d="M53 1151q2 8 7.5 25.5t11.5 37t11 37t9 27.5l219 -92q0 14 -3 49t-6 73t-6 71.5t-3 50.5h131l-21 -244q14 6 45 18.5t65 26.5t64.5 27.5t45.5 19.5q2 -10 8 -27.5t12 -37t12.5 -37t8.5 -25.5l-230 -59l158 -187q-8 -6 -22.5 -17t-32 -22.5t-31.5 -23t-23 -17.5l-125 209 q-8 -12 -26.5 -41.5t-38 -62.5t-36.5 -62.5t-26 -44.5q-8 6 -23 17.5t-31.5 24t-32 22.5t-21.5 16l158 189q-14 4 -47 12t-68 17t-66.5 17.5t-46.5 12.5z"/>
            <glyph unicode="+" d="M39 539v127h350v362h125v-362h348v-127h-348v-365h-125v365h-350z"/>
            <glyph unicode="," horiz-adv-x="456" d="M117 -238l57 230h-51v213h194v-209l-104 -234h-96z"/>
            <glyph unicode="-" horiz-adv-x="755" d="M104 455v145h560v-145h-560z"/>
            <glyph unicode="." horiz-adv-x="446" d="M125 0v207h194v-207h-194z"/>
            <glyph unicode="/" horiz-adv-x="587" d="M4 -86l449 1571h129l-449 -1571h-129z"/>
            <glyph unicode="0"
                   d="M109 326v772q0 82 27.5 145.5t75.5 106.5t109.5 65.5t129.5 22.5t130 -22.5t109 -65.5t76 -106.5t29 -145.5v-772q0 -82 -29 -145.5t-76 -106.5t-109.5 -64.5t-129.5 -21.5q-68 0 -129.5 21.5t-109.5 64.5t-75.5 106.5t-27.5 145.5zM272 326q0 -86 49.5 -132.5 t129.5 -46.5t129 46.5t49 132.5v772q0 86 -49.5 133t-128.5 47q-80 0 -129.5 -47t-49.5 -133v-772z"/>
            <glyph unicode="1" d="M231 1102l2 176l193 147h168v-1425h-166v1251z"/>
            <glyph unicode="2"
                   d="M96 0v154l461 720q35 53 48 115t13 107q0 35 -8 67.5t-28.5 59t-53.5 42t-82 15.5q-82 -2 -128 -62.5t-52 -170.5l-168 26q12 166 104.5 264.5t248.5 98.5q162 0 254 -88t92 -250q0 -74 -24.5 -153t-72.5 -150l-407 -637h487v-158h-684z"/>
            <glyph unicode="3"
                   d="M100 299l166 33q12 -84 49 -136.5t127 -52.5q102 0 146.5 75t44.5 185q0 266 -195 267h-84v143h76q102 0 148.5 57.5t46.5 167.5q0 45 -8.5 89t-29 78t-55 54.5t-86.5 20.5q-47 0 -77.5 -15.5t-50 -42t-28.5 -61.5t-16 -74l-163 27q8 68 32.5 127t66.5 103.5t99.5 69 t134.5 24.5q104 0 171 -32t106 -85t54.5 -125t15.5 -154q0 -41 -6.5 -85t-24 -85t-48 -74.5t-79.5 -52.5q55 -12 88 -41.5t50 -72.5t22.5 -97.5t5.5 -115.5q0 -92 -18.5 -171t-61.5 -136.5t-112.5 -90t-172.5 -32.5q-63 0 -120.5 19.5t-102.5 58t-75 97t-36 136.5z"/>
            <glyph unicode="4"
                   d="M53 217v160l396 1048h172l-398 -1052h350v407h164v-407h109v-156h-109v-217h-164v217h-520z"/>
            <glyph unicode="5"
                   d="M90 305l166 27q10 -94 51 -144.5t133 -50.5q68 0 106 33t56.5 84t21.5 114.5t3 125.5q0 53 -4.5 105t-21.5 94t-52 68.5t-96 26.5q-57 0 -98.5 -27.5t-67.5 -74.5h-154v739h647v-153h-497l6 -414q49 47 102.5 62.5t108.5 15.5q98 0 156.5 -37t89 -97.5t39 -138 t8.5 -159.5q0 -125 -15.5 -221.5t-54.5 -162t-108.5 -99t-176.5 -33.5q-307 0 -348 317z"/>
            <glyph unicode="6"
                   d="M106 395q0 119 20.5 210t61.5 181q33 74 78 172.5t88 193.5t78 170t47 103h176l-282 -624l6 -2q23 14 56.5 21t64.5 7q82 0 138 -34.5t92 -91t51.5 -127t15.5 -140.5q0 -98 -19.5 -180t-61.5 -141.5t-109.5 -92t-164.5 -32.5q-178 0 -257 106.5t-79 300.5zM268 399 q0 -57 7.5 -104t28 -81t55 -53.5t87.5 -19.5q88 0 135.5 62.5t47.5 204.5q0 51 -7.5 100t-25.5 88t-53 61.5t-90 22.5q-61 0 -98.5 -26.5t-55.5 -68.5t-24.5 -91.5t-6.5 -94.5z"/>
            <glyph unicode="7" d="M104 1077v348h693v-153l-430 -1272h-172l428 1270h-365v-193h-154z"/>
            <glyph unicode="8"
                   d="M92 397q0 268 158 344q-45 27 -74 57.5t-44 67.5t-20.5 83t-5.5 102q0 100 28 172.5t76 121t110.5 71t130.5 22.5q72 0 134 -22.5t109 -70t74 -121t27 -173.5q0 -113 -32 -185.5t-104 -124.5q88 -41 119 -128t31 -216q0 -115 -30.5 -192.5t-82 -125.5t-115 -69.5 t-130.5 -21.5q-72 0 -136.5 21.5t-113.5 69.5t-79 126t-30 192zM258 410q0 -76 15.5 -127.5t41 -83t60.5 -45t76 -13.5q100 0 144 65.5t44 207.5q0 141 -48 201.5t-140 60.5q-86 0 -139.5 -60.5t-53.5 -205.5zM272 1040q0 -231 179 -231q88 0 133 57.5t45 184.5 q0 111 -42 170t-136 59t-136.5 -60.5t-42.5 -179.5z"/>
            <glyph unicode="9"
                   d="M102 991q0 98 20.5 180t63.5 141.5t112 92.5t165 33q178 0 256 -106.5t78 -301.5q2 -119 -21.5 -210t-64.5 -181q-6 -12 -30 -63.5t-55.5 -121t-66.5 -147.5t-65.5 -144.5t-51 -112.5t-22.5 -50h-176l282 625l-6 2q-23 -14 -55.5 -20.5t-63.5 -6.5q-82 0 -139 35t-92 91 t-51.5 126t-16.5 139zM270 1022q0 -53 7.5 -103.5t29 -89t58 -61.5t98.5 -23q51 0 84 23t51 59.5t25.5 87t7.5 105.5q0 57 -7.5 105.5t-26.5 83t-54 55t-88 20.5q-88 0 -136.5 -60.5t-48.5 -201.5z"/>
            <glyph unicode=":" horiz-adv-x="442" d="M119 0v207h194v-207h-194zM119 598v209h194v-209h-194z"/>
            <glyph unicode=";" horiz-adv-x="442"
                   d="M115 -238l57 230h-49v213h194v-209l-104 -234h-98zM123 598v209h194v-209h-194z"/>
            <glyph unicode="&#x3c;" d="M55 545v117l783 395v-139l-637 -314l637 -313v-139z"/>
            <glyph unicode="=" d="M39 360v134h823v-134h-823zM39 715v133h823v-133h-823z"/>
            <glyph unicode="&#x3e;" d="M57 152v139l637 313l-637 314v139l783 -395v-117z"/>
            <glyph unicode="?" horiz-adv-x="888"
                   d="M78 1073q12 92 47 161t86 114t115.5 66.5t136.5 21.5q178 0 270 -98.5t92 -262.5q0 -49 -7 -88t-20.5 -72.5t-33 -64.5t-43.5 -68q-23 -33 -51.5 -66.5t-54 -70.5t-43 -76t-17.5 -77v-123h-170v96q0 74 17.5 131t58.5 111q76 102 129 173.5t57 145.5q0 43 -6 87t-26.5 80 t-59.5 58.5t-102 22.5q-47 0 -85 -19.5t-63.5 -51.5t-40 -72.5t-16.5 -81.5zM381 0v182h172v-182h-172z"/>
            <glyph unicode="@" horiz-adv-x="1617"
                   d="M109 688q0 164 51 302t145 238.5t228.5 157t300.5 56.5q152 0 275.5 -49.5t210.5 -136.5t135 -207.5t48 -262.5q0 -141 -29.5 -237t-78.5 -155.5t-113.5 -85t-136.5 -25.5q-18 0 -47 8t-57.5 24.5t-52 41t-32.5 57.5l-6 -2q-25 -45 -86 -76t-135 -31q-111 0 -171 64.5 t-60 169.5q0 45 13 88t42 76.5t74 55t108 21.5h187v99q0 53 -36 83.5t-108 30.5q-47 0 -85 -22.5t-56 -57.5l-111 56q35 66 99.5 105.5t150.5 39.5q61 0 111.5 -11t87.5 -39t57.5 -73t20.5 -112v-344q0 -61 30.5 -94t71.5 -33t79 14t66.5 56t46 116t17.5 192 q0 127 -42 226.5t-113.5 167t-167 103.5t-201.5 36q-141 0 -252 -49t-187.5 -134t-116.5 -200t-40 -248q0 -145 41 -265t117.5 -205t189.5 -131t254 -46q55 0 103 4t94.5 14.5t92.5 27.5t95 44l47 -119q-96 -41 -201.5 -66.5t-220.5 -25.5q-168 0 -305 51.5t-235.5 149.5 t-152.5 240.5t-54 326.5zM623 545q0 -49 34.5 -83t108.5 -34q156 0 156 137v105h-154q-66 0 -105.5 -28.5t-39.5 -96.5z"/>
            <glyph unicode="A" horiz-adv-x="1017"
                   d="M18 0l414 1425h154l415 -1425h-176l-90 324h-454l-88 -324h-175zM319 477h377l-104 369l-80 315h-8l-80 -313z"/>
            <glyph unicode="B" horiz-adv-x="1036"
                   d="M133 0v1425h410q197 0 292 -101t95 -273q0 -98 -37 -174t-145 -129v-7q55 -14 94 -46.5t63.5 -77t35.5 -98.5t11 -111q0 -201 -103.5 -304.5t-279.5 -103.5h-436zM303 166h248q68 0 113 20.5t71.5 55t37.5 81t11 99.5q0 106 -54 175t-183 69h-244v-500zM303 813h223 q123 0 179.5 63.5t56.5 167.5q0 102 -56.5 164t-179.5 62h-223v-457z"/>
            <glyph unicode="C" horiz-adv-x="960"
                   d="M102 414v598q0 90 28 167.5t81 134t131 89.5t176 33q145 0 250.5 -72t144.5 -201l-161 -63q-20 78 -79 125t-155 47q-59 0 -105 -21.5t-77 -56.5t-47.5 -82t-16.5 -96v-606q0 -51 16.5 -98.5t47.5 -83t77 -57t105 -21.5q92 0 152.5 47t81.5 127l161 -60 q-37 -135 -142 -205.5t-253 -70.5q-96 0 -174 31.5t-131 88t-82 134t-29 172.5z"/>
            <glyph unicode="D" horiz-adv-x="1067"
                   d="M131 0v1425h399q143 0 246 -52t152 -175q31 -82 34 -199.5t3 -273.5q0 -162 -2 -278.5t-33 -200.5q-29 -72 -72 -119t-98 -74.5t-121 -40t-135 -12.5h-373zM303 160h211q152 0 215.5 81t63.5 224v491q0 166 -72 239t-207 73h-211v-1108z"/>
            <glyph unicode="E" horiz-adv-x="931" d="M133 0v1425h756v-159h-586v-467h502v-154h-502v-479h586v-166h-756z"/>
            <glyph unicode="F" horiz-adv-x="911" d="M133 0v1425h756v-159h-586v-473h502v-154h-502v-639h-170z"/>
            <glyph unicode="G" horiz-adv-x="1036"
                   d="M100 414v598q0 90 28 167.5t82 134t132 89.5t176 33q145 0 250.5 -72t144.5 -205l-163 -55q-20 76 -80 122t-152 46q-59 0 -105 -21.5t-78 -56.5t-48.5 -82t-16.5 -96v-613q0 -51 16.5 -98t48.5 -83t78 -57.5t105 -21.5q55 0 100.5 19.5t77 52.5t50 78t18.5 96v225h-234 v152h406v-367q0 -94 -32 -170.5t-87 -130t-132 -83t-167 -29.5q-98 0 -176 31.5t-131 88t-82 135t-29 173.5z"/>
            <glyph unicode="H" horiz-adv-x="1089" d="M133 0v1425h170v-626h481v626h172v-1425h-172v649h-481v-649h-170z"/>
            <glyph unicode="I" horiz-adv-x="444" d="M135 0v1425h172v-1425h-172z"/>
            <glyph unicode="J" horiz-adv-x="831"
                   d="M-4 131l133 102q29 -35 74 -59t96 -24q94 0 158.5 51t64.5 174v1050h172v-1052q0 -104 -30.5 -177t-85 -119t-125 -67.5t-150.5 -21.5q-98 0 -177 37.5t-130 105.5z"/>
            <glyph unicode="K" horiz-adv-x="1056"
                   d="M131 0v1425h172v-747q2 0 3 1t3 1q121 190 244 373.5t246 371.5h186q-92 -141 -183 -277t-184 -278l420 -870h-188l-340 707q-53 -76 -103.5 -153t-103.5 -151v-403h-172z"/>
            <glyph unicode="L" horiz-adv-x="905" d="M133 0v1425h170v-1259h569v-166h-739z"/>
            <glyph unicode="M" horiz-adv-x="1343"
                   d="M133 0v1425h172l236 -538l135 -330h6l139 334l232 534h170v-1425h-170v995l-9 -2l-112 -274l-197 -440h-117l-198 448l-109 268l-8 -2v-993h-170z"/>
            <glyph unicode="N" horiz-adv-x="1150"
                   d="M129 0v1425h166l399 -739l152 -293l8 2v1030h170v-1425h-164l-407 750l-146 284h-6v-1034h-172z"/>
            <glyph unicode="O" horiz-adv-x="1017"
                   d="M90 440v572q0 72 22.5 147.5t71.5 137t129 100.5t195 39q109 0 187.5 -37t130 -97.5t76 -136t24.5 -153.5v-596q0 -98 -31 -177t-86 -135.5t-132 -86t-169 -29.5q-113 0 -192.5 36.5t-130 99t-73 144.5t-22.5 172zM258 1006l2 -564q0 -61 13.5 -115.5t44 -94t78.5 -63.5 t116 -24q49 0 93 17.5t76 50.5t51.5 80t19.5 106v611q0 33 -11.5 78t-39 85.5t-74.5 70.5t-121 30t-121 -27.5t-75.5 -67.5t-40 -87.5t-11.5 -85.5z"/>
            <glyph unicode="P" horiz-adv-x="991"
                   d="M133 0v1425h406q199 0 307 -105.5t108 -322.5q0 -82 -22.5 -158.5t-70.5 -135t-126 -94.5t-188 -36h-244v-573h-170zM303 733h234q72 0 118.5 22.5t75.5 59.5t40 85t11 99q0 123 -57 195t-190 72h-232v-533z"/>
            <glyph unicode="Q" horiz-adv-x="1036"
                   d="M111 442v572q0 72 22.5 146.5t71.5 136t129 100.5t194 39q109 0 188 -37t130 -96.5t75.5 -135t24.5 -153.5v-596q0 -66 -14 -123t-39 -105l143 -114l-88 -111l-143 115q-111 -92 -277 -92q-113 0 -192.5 36.5t-129.5 100t-72.5 145.5t-22.5 172zM279 1012l2 -568 q0 -61 13 -116.5t44 -95t79 -63.5t115 -24q80 0 140 43l-168 136l92 108l160 -131q16 49 16 100v611q0 33 -10 78t-38 86t-75 69.5t-121 28.5q-70 0 -118 -26.5t-76.5 -65.5t-41.5 -85t-13 -85z"/>
            <glyph unicode="R" horiz-adv-x="1036"
                   d="M133 0v1425h447q174 0 274 -103t100 -294q0 -135 -60 -232.5t-185 -144.5l258 -651h-187l-237 627h-240v-627h-170zM303 776h250q115 0 172 67.5t57 184.5q0 119 -56 180.5t-177 61.5h-246v-494z"/>
            <glyph unicode="S" horiz-adv-x="978"
                   d="M45 238l152 88q41 -72 110.5 -123t179.5 -51q131 0 188.5 67.5t57.5 169.5q0 57 -17.5 97t-50 69t-79.5 50.5t-105 39.5q-106 33 -181 69t-122 83t-68.5 107.5t-21.5 142.5q0 86 28.5 157.5t83 123.5t130.5 81t170 29q158 0 254 -56.5t143 -142.5l-145 -100 q-41 72 -102.5 103.5t-157.5 31.5q-119 0 -174.5 -65.5t-55.5 -161.5q0 -55 24.5 -94.5t67.5 -67t100.5 -49t125.5 -41.5q92 -29 155.5 -66t101 -86t55 -111.5t17.5 -142.5q0 -186 -111.5 -294.5t-312.5 -108.5q-166 0 -276.5 67.5t-163.5 184.5z"/>
            <glyph unicode="T" horiz-adv-x="825" d="M2 1270v155h821v-155h-325v-1270h-170v1270h-326z"/>
            <glyph unicode="U" horiz-adv-x="1062"
                   d="M115 414v1011h170v-1017q0 -51 17 -97.5t49 -82t78 -57t103 -21.5q109 0 177.5 68.5t68.5 189.5v1017h172v-1011q0 -98 -30.5 -177t-86 -134.5t-132 -85t-169.5 -29.5q-98 0 -174.5 31.5t-131 88t-83 135.5t-28.5 171z"/>
            <glyph unicode="V" horiz-adv-x="960"
                   d="M29 1425h178l168 -665l102 -461h6l105 465l166 661h178l-373 -1425h-160z"/>
            <glyph unicode="W" horiz-adv-x="1437"
                   d="M39 1425h178l119 -653l65 -405h7l86 399l153 659h146l153 -661l86 -397h6l64 397l117 661h180l-283 -1425h-151l-160 692l-84 391h-6l-82 -383l-160 -700h-151z"/>
            <glyph unicode="X" horiz-adv-x="921"
                   d="M8 0l363 739l-338 686h186l242 -530l241 530h187l-340 -686l364 -739h-184l-268 578l-266 -578h-187z"/>
            <glyph unicode="Y" horiz-adv-x="905"
                   d="M14 1425h181q37 -92 75.5 -184t75.5 -184q25 -61 50.5 -133t47.5 -133h13l104 274l148 360h178l-352 -831v-594h-166v594z"/>
            <glyph unicode="Z" horiz-adv-x="845" d="M55 0v158l555 1112h-532v155h717v-147l-555 -1116h553v-162h-738z"/>
            <glyph unicode="[" horiz-adv-x="483" d="M139 -211v1641h312v-109h-164v-1423h164v-109h-312z"/>
            <glyph unicode="\" horiz-adv-x="540" d="M10 1462h127l387 -1513h-129z"/>
            <glyph unicode="]" horiz-adv-x="483" d="M43 -102h162v1423h-162v109h307v-1643h-307v111z"/>
            <glyph unicode="^" d="M37 680l362 741h117l365 -741h-140l-284 592l-283 -592h-137z"/>
            <glyph unicode="_" horiz-adv-x="1024" d="M0 -141h1024v-125h-1024v125z"/>
            <glyph unicode="`" horiz-adv-x="868" d="M338 1475l156 51l143 -355l-98 -38z"/>
            <glyph unicode="a" horiz-adv-x="872"
                   d="M74 285q0 135 84 224t268 89h186v125q0 70 -46 108.5t-136 38.5q-59 0 -111.5 -21.5t-74.5 -74.5q-33 18 -65 37.5t-64 40.5q41 84 126 129t189 45q72 0 135.5 -15.5t111.5 -50t75.5 -93t27.5 -146.5v-721h-168v74l-8 4q-35 -45 -97.5 -67.5t-141.5 -22.5 q-74 0 -129.5 23.5t-91 64.5t-53 95t-17.5 114zM231 295q0 -68 45.5 -110t137.5 -42q86 0 142 39t56 135v140h-198q-80 0 -131.5 -38t-51.5 -124z"/>
            <glyph unicode="b" horiz-adv-x="884"
                   d="M100 0v1487h166v-580h4q47 63 108.5 90t123.5 27q104 0 164.5 -44t92.5 -114.5t40 -163t8 -186.5q0 -104 -10.5 -200.5t-43 -169t-92 -115.5t-159.5 -43q-72 0 -129.5 25.5t-102.5 82.5q-2 0 -2 -1t-2 -1v-94h-166zM262 532q0 -59 1 -127.5t18.5 -127t56.5 -96.5t113 -38 q61 0 98 27t57.5 76t26.5 115.5t6 146.5q0 84 -7 149.5t-28.5 110.5t-58.5 68.5t-94 23.5q-63 0 -101.5 -30.5t-58 -79t-24.5 -105.5t-5 -113z"/>
            <glyph unicode="c" horiz-adv-x="788"
                   d="M63 528q0 227 92.5 362.5t288.5 135.5q111 0 190 -50t120 -136l-136 -84q-23 53 -67.5 82.5t-104.5 29.5q-68 0 -110.5 -26.5t-66 -72.5t-32 -108.5t-8.5 -136.5t8.5 -142.5t32 -121.5t65.5 -85t109 -32q61 0 105 32t67 73q35 -20 70 -37.5t70 -38.5q-41 -86 -121 -135 t-191 -49q-115 0 -188.5 39t-116.5 109.5t-59.5 171t-16.5 220.5z"/>
            <glyph unicode="d" horiz-adv-x="886"
                   d="M80 504q0 94 11 187t45 167t97.5 120t167.5 46q61 0 115.5 -22.5t99.5 -73.5h5v559h165v-1487h-165v94q-2 0 -2.5 1t-2.5 1q-45 -57 -102 -82.5t-129 -25.5q-100 0 -160.5 42t-92.5 112.5t-42 164.5t-10 197zM248 508q0 -74 6 -139.5t26.5 -114.5t57.5 -79t98 -30 q74 0 113 41t55.5 101.5t17.5 127t1 117.5q0 63 -6.5 122t-25 105t-55.5 73.5t-98 27.5q-63 0 -101 -28.5t-57.5 -76.5t-25.5 -112.5t-6 -134.5z"/>
            <glyph unicode="e" horiz-adv-x="868"
                   d="M76 506q0 96 15 189t55 167t110 119t178 45q172 0 263 -109.5t91 -302.5v-157h-546q0 -68 8 -126.5t30.5 -101.5t63.5 -67.5t107 -24.5q55 0 101 35t75 82l135 -72q-41 -90 -122 -142t-183 -52t-174 28.5t-118 91t-67.5 161t-21.5 237.5zM246 590h379q0 139 -48.5 209.5 t-140.5 70.5q-106 0 -146 -75.5t-44 -204.5z"/>
            <glyph unicode="f" horiz-adv-x="538"
                   d="M35 877v135h112v231q0 127 69 188.5t177 61.5h107v-154h-84q-57 0 -79 -33.5t-22 -82.5v-211h185v-135h-185v-877h-168v877h-112z"/>
            <glyph unicode="g" horiz-adv-x="903"
                   d="M80 498q0 98 9 193t40 170t92.5 120t165.5 45q72 0 129 -25.5t102 -82.5q2 0 2.5 1t2.5 1v94h165v-1022q0 -188 -89 -302t-281 -114q-98 0 -178 47t-121 133l137 80q23 -41 66 -72.5t102 -31.5q104 0 151.5 61.5t47.5 171.5v141h-5q-47 -63 -108 -89.5t-123 -26.5 q-104 0 -165.5 44t-92.5 114.5t-40 161.5t-9 188zM250 506q0 -82 6 -147.5t26.5 -110.5t55.5 -69.5t94 -24.5q61 0 99 27.5t58.5 73.5t28 104.5t7.5 121.5q0 59 -1 127t-17.5 125.5t-55.5 95t-113 37.5q-66 0 -103.5 -28.5t-56 -77.5t-23.5 -114.5t-5 -139.5z"/>
            <glyph unicode="h" horiz-adv-x="897"
                   d="M96 0v1487h166v-588h6q43 59 106.5 92t137.5 33q61 0 113.5 -20.5t90.5 -60.5t60.5 -96t22.5 -130v-717h-166v662q0 92 -46 145t-138 53q-86 0 -137.5 -53t-51.5 -150v-657h-164z"/>
            <glyph unicode="i" horiz-adv-x="403" d="M119 0v1014h166v-1014h-166zM119 1260v165h166v-165h-166z"/>
            <glyph unicode="j" horiz-adv-x="430"
                   d="M-25 -266q4 0 20.5 -1t18.5 1q63 2 91 42t28 111v1127h166v-1164q0 -57 -16.5 -106t-50 -86t-84 -57.5t-117.5 -20.5h-56v154zM133 1260v165h166v-165h-166z"/>
            <glyph unicode="k"
                   d="M113 0v1487h166v-963h4l360 490h191l-289 -387l346 -627h-184l-269 494l-159 -222v-272h-166z"/>
            <glyph unicode="l" horiz-adv-x="464"
                   d="M121 236v1251h166v-1225q0 -57 22.5 -86t79.5 -29h35v-153h-45q-121 0 -191 51q-68 50 -67 183v8z"/>
            <glyph unicode="m" horiz-adv-x="1437"
                   d="M106 0v1012h166v-109h4q86 121 236 121q84 0 147.5 -36t100.5 -93h2q59 68 125.5 98.5t154.5 30.5q61 0 113.5 -22.5t91.5 -62.5t60.5 -96.5t21.5 -125.5v-717h-166v602q0 55 -8 102.5t-27.5 81t-54.5 53t-88 19.5q-98 0 -141 -68.5t-43 -185.5v-604h-166v602 q0 55 -8.5 101.5t-28.5 81t-55 54t-88 19.5q-98 0 -141.5 -71.5t-43.5 -188.5v-598h-164z"/>
            <glyph unicode="n" horiz-adv-x="892"
                   d="M94 0v1014h166v-113h6q43 59 106.5 91t137.5 32q61 0 113.5 -21.5t90.5 -61.5t60.5 -96.5t22.5 -127.5v-717h-166v662q0 92 -47 144t-140 52q-84 0 -135 -54t-51 -147v-657h-164z"/>
            <glyph unicode="o" horiz-adv-x="897"
                   d="M82 500q0 96 9 184t32 143q41 92 125 145.5t207 53.5q121 0 190.5 -48t110.5 -120q14 -25 24.5 -64.5t16.5 -88t9 -100.5t3 -99q0 -29 -2 -70t-7 -86t-11.5 -86t-14.5 -65q-18 -59 -54 -100.5t-82 -66t-98.5 -35.5t-107.5 -11q-117 0 -191.5 49t-111.5 127 q-27 55 -37 146t-10 192zM246 481q0 -68 3 -127t19 -100q23 -55 66 -86t108 -31q63 0 111.5 31t71.5 98q10 29 14 97.5t4 152.5q0 72 -4 136.5t-16 101.5q-23 61 -68 92t-104 31t-106.5 -29t-70.5 -86q-14 -39 -21 -111.5t-7 -169.5z"/>
            <glyph unicode="p" horiz-adv-x="884"
                   d="M90 -410v1424h166v-94q2 0 2 -1t2 -1q45 57 102.5 82.5t129.5 25.5q100 0 159.5 -42t92 -112.5t43 -165t10.5 -196.5q0 -96 -11.5 -189.5t-46 -167t-98 -118.5t-166.5 -45q-127 0 -215 100h-4v-500h-166zM254 481q0 -55 5 -112.5t23.5 -105.5t55.5 -78.5t100 -30.5 t100 28.5t57.5 76.5t27 111.5t6.5 135.5q0 74 -6.5 139.5t-25.5 114.5t-56 78.5t-101 29.5q-74 0 -112.5 -37.5t-55 -95t-17.5 -126t-1 -128.5z"/>
            <glyph unicode="q"
                   d="M88 498q0 98 11.5 193t44 170t93 120t160.5 45q72 0 129.5 -25.5t102.5 -82.5q2 0 2 1t2 1v94h166v-1428h-166v520h-4q-47 -63 -108.5 -89.5t-123.5 -26.5q-104 0 -165.5 44t-93.5 114.5t-41 161.5t-9 188zM260 506q0 -72 5 -135.5t24.5 -111.5t58 -76.5t101.5 -28.5 q61 0 98 30.5t56.5 78.5t25.5 105.5t6 112.5q0 59 -1 128t-17.5 127.5t-55.5 96t-112 37.5q-61 0 -98.5 -29.5t-58 -79.5t-26.5 -115.5t-6 -139.5z"/>
            <glyph unicode="r" horiz-adv-x="636"
                   d="M121 0v1012h164v-121h6q47 80 106.5 107.5t141.5 27.5q59 -4 92 -22l-37 -179q-49 23 -100 23q-94 0 -151.5 -52.5t-57.5 -166.5v-629h-164z"/>
            <glyph unicode="s" horiz-adv-x="829"
                   d="M55 201l135 78q33 -66 87.5 -103t136.5 -37q86 0 134 36t48 116q0 39 -14.5 63.5t-40 41t-60.5 27.5t-75 23q-74 18 -133.5 42t-102.5 58t-65.5 80t-22.5 111q0 135 88 212t242 77q137 0 213.5 -51t111.5 -144l-129 -79q-59 122 -196 122h-2q-92 0 -128 -41.5t-36 -95.5 q0 -35 18.5 -57.5t50 -37.5t73.5 -27.5t87 -24.5q72 -16 125 -40t89 -59.5t53.5 -85t17.5 -118.5q0 -137 -92.5 -219t-257.5 -82q-131 0 -219.5 55t-135.5 160z"/>
            <glyph unicode="t" horiz-adv-x="522"
                   d="M33 879v135h112v260h166v-260h144v-135h-144v-600q0 -63 24.5 -95t80.5 -32h55v-152h-92q-117 0 -175.5 66.5t-58.5 164.5v648h-112z"/>
            <glyph unicode="u" horiz-adv-x="905"
                   d="M94 295v717h166v-662q0 -92 50 -146t136 -54q84 0 135.5 55t51.5 149v658h164v-1012h-164v109h-6q-43 -61 -107.5 -91t-136.5 -30q-61 0 -114.5 21.5t-91.5 61.5t-60.5 96t-22.5 128z"/>
            <glyph unicode="v" horiz-adv-x="808"
                   d="M12 1014h178q8 -27 24.5 -87.5t35 -128t34 -128t25.5 -86.5l97 -346h6q6 18 19 68t27.5 106.5t27 105.5t18.5 68q8 27 24.5 87t33 126.5t31.5 126t25 88.5h179q-16 -43 -40 -122t-53.5 -178.5t-60.5 -207t-60.5 -206.5t-54 -179t-39.5 -121h-167q-16 41 -41 121 t-53.5 179t-60.5 206.5t-60.5 207t-54 178.5t-40.5 122z"/>
            <glyph unicode="w" horiz-adv-x="1300"
                   d="M16 1014h177q35 -135 66.5 -268.5t64.5 -268.5l49 -209h8l51 207q33 133 68 267.5t69 271.5h162q35 -131 66.5 -262t64.5 -263l56 -231h8l51 221q33 135 62.5 267.5t62.5 267.5h178l-276 -1014h-162q-33 123 -67 245t-64 247l-64 235h-4q-16 -66 -32.5 -132.5 t-32.5 -129.5l-123 -465h-164z"/>
            <glyph unicode="x" horiz-adv-x="806"
                   d="M18 0l297 520l-282 494h186l187 -371l184 371h186l-282 -496l297 -518h-187l-198 389l-201 -389h-187z"/>
            <glyph unicode="y" horiz-adv-x="786"
                   d="M2 1014h176l125 -406l96 -342h7l90 342l118 406h172l-364 -1217q-33 -109 -100.5 -160t-163.5 -51h-54v144h50q96 0 131 145l43 150z"/>
            <glyph unicode="z" horiz-adv-x="757" d="M59 0v145l455 721h-426v146h612v-142l-452 -714h452v-156h-641z"/>
            <glyph unicode="{" horiz-adv-x="503"
                   d="M35 555v104q39 6 66.5 30t45 59.5t25.5 82t8 95.5v280q0 102 53.5 161.5t131.5 59.5h114v-110h-61q-27 0 -44.5 -16.5t-28.5 -42t-15 -57.5t-4 -62v-258q0 -66 -15.5 -114t-38 -81t-46 -50.5t-40.5 -23.5v-6q16 -6 40 -23.5t46.5 -50t38 -79.5t15.5 -111v-266 q0 -31 4 -62.5t15 -57.5t28.5 -42t44.5 -16h61v-109h-114q-78 0 -131.5 59.5t-53.5 159.5v285q0 109 -33.5 180.5t-111.5 81.5z"/>
            <glyph unicode="|" horiz-adv-x="423" d="M147 -332v1798h132v-1798h-132z"/>
            <glyph unicode="}" horiz-adv-x="503"
                   d="M31 -102h63q27 0 44.5 16t28.5 42t15 57.5t4 62.5v266q0 63 15.5 110.5t38 80t46 50t40.5 23.5v6q-16 6 -40 23.5t-46.5 50.5t-38 81t-15.5 114v258q0 31 -3 62.5t-12 57t-27.5 42t-49.5 16.5h-63v106h114q86 0 136.5 -59t50.5 -158v-280q0 -49 8 -95.5t24.5 -82t44 -59 t66.5 -30.5v-104q-78 -10 -110.5 -82t-32.5 -180v-285q0 -100 -53.5 -159.5t-131.5 -59.5h-116v109z"/>
            <glyph unicode="~"
                   d="M37 510q45 78 105.5 122t136.5 44q49 0 93 -17.5t87 -39t84 -39t82 -17.5q45 0 71.5 25.5t65.5 75.5l104 -72q-47 -78 -103 -127t-140 -49q-39 0 -82 18.5t-88 40t-89.5 39.5t-87.5 18q-47 0 -72.5 -22.5t-66.5 -69.5z"/>
            <glyph unicode="&#xa1;" horiz-adv-x="481"
                   d="M156 1243v182h174v-182h-174zM160 0l16 1063h129l17 -1063h-162z"/>
            <glyph unicode="&#xa2;"
                   d="M104 528q0 205 76 337t238 155v211h92v-207q102 -6 174 -55t111 -129l-136 -84q-45 100 -149 110v-723q53 8 90 38t57 67q35 -20 70 -37.5t70 -38.5q-39 -80 -113 -129t-174 -53v-230h-92v232q-92 12 -153.5 55t-96.5 112.5t-49.5 163t-14.5 205.5zM270 524 q0 -63 6.5 -123.5t22.5 -109.5t45 -85t74 -52v704q-47 -12 -76 -43t-44 -75t-21.5 -99.5t-6.5 -116.5z"/>
            <glyph unicode="&#xa3;"
                   d="M63 0v137q59 94 99.5 189.5t48.5 218.5l4 65h-149v135h124q-10 51 -24 95.5t-26.5 84.5t-21.5 81t-9 88q0 72 23.5 134t67.5 108t107.5 73t141.5 27q129 0 232 -61.5t155 -207.5l-156 -59q-45 102 -100.5 136t-124.5 34q-63 0 -114.5 -48t-51.5 -140q0 -39 9 -78 t21.5 -81t25.5 -88t22 -98h260v-135h-248q0 -135 -27.5 -241.5t-87.5 -214.5h537v-154h-738z"/>
            <glyph unicode="&#xa4;" horiz-adv-x="1138"
                   d="M82 274l141 138q-43 55 -60.5 116.5t-17.5 124.5q0 123 78 242l-141 139l100 101l140 -140q59 39 118.5 58.5t124.5 19.5q66 0 125.5 -19.5t118.5 -58.5l137 140l101 -103l-140 -137q78 -119 78 -242q0 -127 -78 -241l140 -136l-101 -102l-137 139q-115 -80 -244 -80 q-131 0 -243 80l-140 -139zM291 653q0 -55 22.5 -105t59.5 -87t86 -58.5t104 -21.5q57 0 107.5 21.5t87.5 58.5t58.5 86t21.5 106t-21.5 107.5t-58.5 87.5t-87 58.5t-108 21.5q-55 0 -104 -21.5t-87 -58.5t-59.5 -87.5t-21.5 -107.5z"/>
            <glyph unicode="&#xa5;"
                   d="M43 1425h168q59 -162 117.5 -322.5t117.5 -322.5h9q59 162 116.5 323t114.5 322h170l-276 -714h227v-105h-266l-11 -31v-131h277v-106h-277v-338h-155v338h-275v106h275v129l-10 33h-265v105h224z"/>
            <glyph unicode="&#xa6;" horiz-adv-x="423" d="M147 -332v856h132v-856h-132zM147 608v858h132v-858h-132z"/>
            <glyph unicode="&#xa7;" horiz-adv-x="911"
                   d="M94 -12q25 25 47.5 51.5t46.5 50.5q59 -59 122 -81.5t132 -22.5q100 0 155.5 43t55.5 125q0 72 -61.5 122t-177.5 103q-74 31 -131.5 62.5t-96.5 69.5t-58 85t-19 111q0 66 32.5 127t85.5 102q-41 41 -63.5 88t-22.5 113t26 121t71 95t107.5 62.5t133.5 22.5 q199 0 332 -123q-23 -29 -47.5 -55.5t-48.5 -55.5q-66 55 -124.5 74.5t-113.5 19.5q-84 0 -130 -43t-46 -106q0 -37 18.5 -66.5t49 -53t71.5 -45t88 -42.5q57 -27 113.5 -57.5t101.5 -72.5t74 -95t29 -125q0 -70 -29 -129.5t-82 -102.5q35 -43 56.5 -93t21.5 -107 q0 -141 -99.5 -227.5t-273.5 -86.5q-100 0 -193 40t-153 102zM262 719q0 -31 17.5 -58.5t45 -52t63.5 -44t73 -36.5q41 -18 82 -35.5t75 -37.5q39 20 57.5 56t18.5 77v6q0 72 -61.5 115t-171.5 90q-27 12 -54.5 22t-56.5 27q-41 -16 -64.5 -50t-23.5 -79z"/>
            <glyph unicode="&#xa8;" horiz-adv-x="874" d="M184 1214v172h162v-172h-162zM526 1214v172h160v-172h-160z"/>
            <glyph unicode="&#xa9;" horiz-adv-x="1542"
                   d="M104 698q0 154 47.5 286t134.5 228.5t209.5 150.5t274.5 54q150 0 273.5 -54t210.5 -150.5t135.5 -228.5t48.5 -286t-48.5 -283.5t-135.5 -226t-210.5 -150.5t-273.5 -54q-154 0 -276.5 54t-209.5 150.5t-133.5 226.5t-46.5 283zM227 698q0 -127 39 -235.5t109.5 -190.5 t171 -128t223.5 -46q125 0 226.5 46t171 128t107.5 190.5t38 235.5t-38 238t-108.5 191.5t-171 128t-225.5 47.5q-127 0 -227.5 -47.5t-170 -128t-107.5 -191.5t-38 -238zM512 508v360q0 111 68.5 186.5t193.5 75.5q88 0 155.5 -47t92.5 -133l-115 -45q-12 47 -46 77t-87 30 q-70 0 -104.5 -44t-34.5 -98v-366q0 -55 35 -100.5t104 -45.5q49 0 85 30t48 79l115 -43q-23 -86 -91.5 -134t-156.5 -48q-123 0 -192.5 74.5t-69.5 191.5z"/>
            <glyph unicode="&#xaa;" horiz-adv-x="602"
                   d="M43 766q0 39 11.5 77t37 66.5t66.5 47t100 18.5h154v69q0 41 -26 62.5t-89 21.5q-88 0 -123 -63l-104 59q29 59 89 92t138 33q53 0 99 -9t80 -32.5t52.5 -63.5t18.5 -100v-473h-135v66q-29 -35 -70 -54.5t-94 -19.5t-92 16.5t-63.5 44t-37 64.5t-12.5 78zM174 772 q0 -88 107 -88q55 0 93 23.5t38 78.5v76h-125q-51 0 -82 -21.5t-31 -68.5z"/>
            <glyph unicode="&#xab;" horiz-adv-x="915"
                   d="M90 475l240 381h159l-235 -381l235 -381h-159zM432 475l240 381h159l-233 -381l233 -381h-159z"/>
            <glyph unicode="&#xac;" d="M39 539v127h823l-2 -492h-127v365h-694z"/>
            <glyph unicode="&#xad;" horiz-adv-x="755" d="M104 455v145h560v-145h-560z"/>
            <glyph unicode="&#xae;" horiz-adv-x="1071"
                   d="M123 1006q0 94 28.5 175t83 139t130 92t170.5 34q92 0 166.5 -34t129 -92t83 -139t28.5 -175t-28.5 -174t-83 -138.5t-129 -91.5t-166.5 -33q-94 0 -170 33t-130.5 91.5t-83 138t-28.5 174.5zM207 1008q0 -78 23.5 -144.5t66.5 -115t103.5 -75t134.5 -26.5q76 0 136 27.5 t101 76t63.5 114t22.5 143.5q0 76 -22.5 142.5t-65.5 115.5t-102 77.5t-133 28.5q-78 0 -138.5 -28.5t-102.5 -77.5t-64.5 -116t-22.5 -142zM381 741v523h149q76 0 125.5 -34t49.5 -120q0 -100 -84 -141q27 -55 52 -112.5t48 -115.5h-96q-23 53 -45.5 107.5t-44.5 107.5h-68 v-215h-86zM467 1032h65q41 0 63.5 18.5t22.5 59.5q0 47 -25.5 61.5t-76.5 14.5h-49v-154z"/>
            <glyph unicode="&#xaf;" horiz-adv-x="872" d="M205 1204v154h508v-154h-508z"/>
            <glyph unicode="&#xb0;" horiz-adv-x="681"
                   d="M104 1196q0 49 18.5 93t51.5 77t77 51.5t93 18.5t93 -18.5t77 -51.5t52.5 -77t19.5 -93t-19.5 -93t-52.5 -77t-77 -51.5t-93 -18.5t-93 18.5t-77 51.5t-51.5 77t-18.5 93zM205 1196q0 -59 41 -100t98 -41q59 0 99 41t40 100t-40 99t-99 40q-57 0 -98 -40t-41 -99z"/>
            <glyph unicode="&#xb1;"
                   d="M49 0v127h813v-127h-813zM49 569v127h344v346h125v-346h344v-127h-344v-346h-125v346h-344z"/>
            <glyph unicode="&#xb2;" horiz-adv-x="571"
                   d="M53 760v106l297 416q41 59 41 125q0 35 -22.5 64.5t-75.5 29.5q-47 0 -76 -35.5t-33 -101.5l-131 18q8 109 70.5 172.5t171.5 63.5t170 -54.5t61 -154.5q0 -45 -15 -93t-48 -93l-248 -342h303v-121h-465z"/>
            <glyph unicode="&#xb3;" horiz-adv-x="575"
                   d="M49 1401q10 92 74 152.5t166 60.5q63 0 107 -18.5t71 -49t39 -71.5t12 -86q0 -53 -14.5 -102.5t-69.5 -84.5q53 -31 70.5 -78t17.5 -118q0 -117 -58 -187.5t-181 -70.5q-104 0 -164 52t-68 158l131 17q6 -115 103 -115q66 0 87 48t21 106q0 57 -25.5 93t-91.5 36h-65v108 h61q68 0 91.5 37t23.5 92t-23.5 86t-76.5 31q-41 0 -70 -30.5t-37 -84.5z"/>
            <glyph unicode="&#xb4;" horiz-adv-x="868" d="M338 1171l143 355l156 -51l-201 -342z"/>
            <glyph unicode="&#xb6;" horiz-adv-x="993"
                   d="M84 1036q0 57 13.5 129t51 133.5t107.5 103.5t182 42h463v-133h-74v-1479h-129v1479h-147v-1479h-129v832h-6q-94 0 -157.5 34.5t-102.5 90t-55.5 121t-16.5 126.5z"/>
            <glyph unicode="&#xb7;" horiz-adv-x="440" d="M121 457v207h194v-207h-194z"/>
            <glyph unicode="&#xb8;" horiz-adv-x="882"
                   d="M248 -387l28 76q39 -18 75 -22.5t65 -4.5q35 0 62.5 20.5t27.5 55.5q0 41 -32 65.5t-99 20.5l-37 31l61 204l84 -6l-45 -149q53 -4 88 -20.5t56.5 -41t30 -51.5t8.5 -51q0 -25 -10.5 -53.5t-33 -52t-59.5 -39t-88 -15.5h-28.5t-46 3t-54.5 10.5t-53 19.5z"/>
            <glyph unicode="&#xb9;" horiz-adv-x="493" d="M98 1389v133l131 92h125v-854h-129v717z"/>
            <glyph unicode="&#xba;" horiz-adv-x="618"
                   d="M51 901q0 53 4 102.5t21 90.5q29 76 85 115.5t154 39.5q84 0 136.5 -31.5t80.5 -82.5q35 -61 35 -224q0 -82 -7 -139t-30 -96q-35 -59 -95 -87t-130 -28q-92 0 -151.5 38t-81.5 103q-12 35 -16.5 90.5t-4.5 108.5zM184 889q0 -37 1 -70t12 -57q12 -39 38.5 -60.5 t73.5 -21.5q84 0 113 76q10 23 12 63.5t2 93.5q0 49 -3 82t-9 56q-23 79 -113 79q-66 0 -96 -47q-14 -20 -22.5 -74.5t-8.5 -119.5z"/>
            <glyph unicode="&#xbb;" horiz-adv-x="915"
                   d="M92 94l234 381l-234 381h160l240 -381l-240 -381h-160zM434 94l236 381l-236 381h160l240 -381l-240 -381h-160z"/>
            <glyph unicode="&#xbc;" horiz-adv-x="1310"
                   d="M115 1200v133l131 92h125v-854h-129v717zM152 -35l755 1497h117l-758 -1497h-114zM664 127v109l254 618h137l-252 -612h192v237h129v-237h72v-115h-72v-127h-129v127h-331z"/>
            <glyph unicode="&#xbd;" horiz-adv-x="1310"
                   d="M102 1200v133l131 92h125v-854h-129v717zM143 -35l756 1497h117l-758 -1497h-115zM733 0v106l297 416q41 59 41 125q0 35 -22.5 64.5t-75.5 29.5q-47 0 -76 -35.5t-33 -101.5l-131 19q8 109 70.5 172t171.5 63t170 -54t61 -155q0 -45 -15 -93t-48 -93l-248 -342h303v-121 h-465z"/>
            <glyph unicode="&#xbe;" horiz-adv-x="1310"
                   d="M53 1217q10 92 74 152.5t166 60.5q63 0 107 -18.5t71 -49.5t39 -72t12 -86q0 -53 -14 -102t-70 -84q53 -31 70.5 -78t17.5 -119q0 -117 -58 -187.5t-181 -70.5q-104 0 -164 52.5t-68 158.5l131 17q6 -115 103 -115q66 0 87 48t21 105t-25.5 93t-90.5 36h-66v109h61 q68 0 91.5 37t23.5 92t-23.5 86t-76.5 31q-41 0 -69.5 -31t-37.5 -84zM229 -35l756 1497h117l-758 -1497h-115zM715 127v109l254 618h137l-252 -612h193v237h129v-237h71v-115h-71v-127h-129v127h-332z"/>
            <glyph unicode="&#xbf;" horiz-adv-x="888"
                   d="M115 -68q0 49 7 88t20.5 73t33 64.5t43.5 67.5q23 33 51.5 67t54 70.5t43 74.5t17.5 79v123h170v-96q0 -74 -17.5 -131.5t-58.5 -110.5q-39 -51 -71.5 -94t-57 -81t-40 -73t-17.5 -71q0 -43 6 -87.5t26.5 -80t58.5 -58t103 -22.5q47 0 85 19.5t64 51t40 72.5t16 82 l170 -25q-12 -92 -47 -160.5t-86 -113.5t-115.5 -66.5t-136.5 -21.5q-178 0 -270 98t-92 262zM387 825v183h172v-183h-172z"/>
            <glyph unicode="&#xc0;" horiz-adv-x="1017"
                   d="M18 0l414 1425h154l415 -1425h-176l-90 324h-454l-88 -324h-175zM170 1722l121 125l303 -250l-76 -86zM319 477h377l-104 369l-80 315h-8l-80 -313z"/>
            <glyph unicode="&#xc1;" horiz-adv-x="1017"
                   d="M18 0l414 1425h154l415 -1425h-176l-90 324h-454l-88 -324h-175zM319 477h377l-104 369l-80 315h-8l-80 -313zM461 1569l297 241l110 -120l-340 -201z"/>
            <glyph unicode="&#xc2;" horiz-adv-x="1017"
                   d="M18 0l414 1425h154l415 -1425h-176l-90 324h-454l-88 -324h-175zM178 1569l287 252h102l273 -248l-66 -72l-266 164l-266 -164zM319 477h377l-104 369l-80 315h-8l-80 -313z"/>
            <glyph unicode="&#xc3;" horiz-adv-x="1017"
                   d="M18 0l414 1425h154l415 -1425h-176l-90 324h-454l-88 -324h-175zM170 1591q35 70 88.5 119t112.5 49q33 0 65.5 -13t63 -29.5t61.5 -30t60 -13.5q55 0 116 86l92 -57q-41 -84 -93 -126t-107 -42q-35 0 -68 13.5t-64.5 28.5t-61 28.5t-56.5 13.5q-31 0 -58.5 -18.5 t-60.5 -59.5zM319 477h377l-104 369l-80 315h-8l-80 -313z"/>
            <glyph unicode="&#xc4;" horiz-adv-x="1017"
                   d="M18 0l414 1425h154l415 -1425h-176l-90 324h-454l-88 -324h-175zM256 1532v172h162v-172h-162zM319 477h377l-104 369l-80 315h-8l-80 -313zM598 1532v172h160v-172h-160z"/>
            <glyph unicode="&#xc5;" horiz-adv-x="1017"
                   d="M18 0l414 1425h154l415 -1425h-176l-90 324h-454l-88 -324h-175zM319 477h377l-104 369l-80 315h-8l-80 -313zM328 1645q0 37 14 68.5t39 55t57.5 38t71.5 14.5q35 0 66.5 -14.5t55 -38t38 -55.5t14.5 -68q0 -72 -51 -122t-123 -50q-78 0 -130 50t-52 122zM414 1645 q0 -37 27.5 -63t68.5 -26q37 0 63.5 26t26.5 63q0 39 -26.5 65.5t-63.5 26.5q-41 0 -68.5 -27t-27.5 -65z"/>
            <glyph unicode="&#xc6;" horiz-adv-x="1640"
                   d="M14 0q178 358 354.5 712.5t356.5 712.5h842v-159h-586v-467h502v-154h-502v-481h586v-164h-758v395h-422l-197 -395h-176zM463 549h346v715h-2z"/>
            <glyph unicode="&#xc7;" horiz-adv-x="960"
                   d="M102 414v598q0 90 28 167.5t81 134t131 89.5t176 33q145 0 250.5 -72t144.5 -201l-161 -63q-20 78 -79 125t-155 47q-59 0 -105 -21.5t-77 -56.5t-47.5 -82t-16.5 -96v-606q0 -51 16.5 -98.5t47.5 -83t77 -57t105 -21.5q92 0 152.5 47t81.5 127l161 -60 q-35 -127 -132 -196.5t-232 -77.5l-25 -86q53 -4 88 -20.5t56.5 -41t30 -51.5t8.5 -51q0 -25 -10.5 -53.5t-33 -52t-59.5 -39t-88 -15.5h-28.5t-46 3t-54.5 10.5t-53 19.5l28 76q39 -18 75 -22.5t65 -4.5q35 0 62.5 20.5t27.5 55.5q0 41 -32 65.5t-99 20.5l-37 31l41 137 q-172 16 -267.5 131t-95.5 291z"/>
            <glyph unicode="&#xc8;" horiz-adv-x="931"
                   d="M133 0v1425h756v-159h-586v-467h502v-154h-502v-479h586v-166h-756zM184 1722l121 125l303 -250l-76 -86z"/>
            <glyph unicode="&#xc9;" horiz-adv-x="931"
                   d="M133 0v1425h756v-159h-586v-467h502v-154h-502v-479h586v-166h-756zM358 1569l297 241l111 -120l-340 -201z"/>
            <glyph unicode="&#xca;" horiz-adv-x="931"
                   d="M133 0v1425h756v-159h-586v-467h502v-154h-502v-479h586v-166h-756zM178 1569l287 252h102l273 -248l-66 -72l-266 164l-266 -164z"/>
            <glyph unicode="&#xcb;" horiz-adv-x="931"
                   d="M133 0v1425h756v-159h-586v-467h502v-154h-502v-479h586v-166h-756zM260 1563v172h162v-172h-162zM602 1563v172h160v-172h-160z"/>
            <glyph unicode="&#xcc;" horiz-adv-x="444"
                   d="M-111 1722l121 125l303 -250l-75 -86zM135 0v1425h172v-1425h-172z"/>
            <glyph unicode="&#xcd;" horiz-adv-x="444"
                   d="M135 0v1425h172v-1425h-172zM160 1569l297 241l110 -120l-340 -201z"/>
            <glyph unicode="&#xce;" horiz-adv-x="444"
                   d="M-117 1569l287 252h102l273 -248l-66 -72l-266 164l-266 -164zM135 0v1425h172v-1425h-172z"/>
            <glyph unicode="&#xcf;" horiz-adv-x="444"
                   d="M-37 1563v172h162v-172h-162zM135 0v1425h172v-1425h-172zM305 1563v172h160v-172h-160z"/>
            <glyph unicode="&#xd0;" horiz-adv-x="1067"
                   d="M12 672v129h119v624h399q143 0 246 -52t152 -175q31 -82 34 -199.5t3 -273.5q0 -162 -2 -278.5t-33 -200.5q-29 -72 -72 -119t-98 -74.5t-121 -40t-135 -12.5h-373v672h-119zM303 160h211q152 0 215.5 81t63.5 224v491q0 166 -72 239t-207 73h-211v-467h248v-129h-248 v-512z"/>
            <glyph unicode="&#xd1;" horiz-adv-x="1150"
                   d="M129 0v1425h166l399 -739l152 -293l8 2v1030h170v-1425h-164l-407 750l-146 284h-6v-1034h-172zM242 1587q35 70 88 119t112 49q33 0 66 -13t63.5 -29.5t61.5 -30t59 -13.5q55 0 117 86l92 -57q-41 -84 -93 -126t-108 -42q-35 0 -67.5 13t-64 28.5t-61.5 29t-56 13.5 q-31 0 -58.5 -18.5t-60.5 -59.5z"/>
            <glyph unicode="&#xd2;" horiz-adv-x="1017"
                   d="M90 440v572q0 72 22.5 147.5t71.5 137t129 100.5t195 39q109 0 187.5 -37t130 -97.5t76 -136t24.5 -153.5v-596q0 -98 -31 -177t-86 -135.5t-132 -86t-169 -29.5q-113 0 -192.5 36.5t-130 99t-73 144.5t-22.5 172zM258 1006l2 -564q0 -61 13.5 -115.5t44 -94t78.5 -63.5 t116 -24q49 0 93 17.5t76 50.5t51.5 80t19.5 106v611q0 33 -11.5 78t-39 85.5t-74.5 70.5t-121 30t-121 -27.5t-75.5 -67.5t-40 -87.5t-11.5 -85.5zM291 1722l121 125l303 -250l-76 -86z"/>
            <glyph unicode="&#xd3;" horiz-adv-x="1017"
                   d="M90 440v572q0 72 22.5 147.5t71.5 137t129 100.5t195 39q109 0 187.5 -37t130 -97.5t76 -136t24.5 -153.5v-596q0 -98 -31 -177t-86 -135.5t-132 -86t-169 -29.5q-113 0 -192.5 36.5t-130 99t-73 144.5t-22.5 172zM258 1006l2 -564q0 -61 13.5 -115.5t44 -94t78.5 -63.5 t116 -24q49 0 93 17.5t76 50.5t51.5 80t19.5 106v611q0 33 -11.5 78t-39 85.5t-74.5 70.5t-121 30t-121 -27.5t-75.5 -67.5t-40 -87.5t-11.5 -85.5zM358 1569l297 241l111 -120l-340 -201z"/>
            <glyph unicode="&#xd4;" horiz-adv-x="1017"
                   d="M90 440v572q0 72 22.5 147.5t71.5 137t129 100.5t195 39q109 0 187.5 -37t130 -97.5t76 -136t24.5 -153.5v-596q0 -98 -31 -177t-86 -135.5t-132 -86t-169 -29.5q-113 0 -192.5 36.5t-130 99t-73 144.5t-22.5 172zM178 1569l287 252h102l273 -248l-66 -72l-266 164 l-266 -164zM258 1006l2 -564q0 -61 13.5 -115.5t44 -94t78.5 -63.5t116 -24q49 0 93 17.5t76 50.5t51.5 80t19.5 106v611q0 33 -11.5 78t-39 85.5t-74.5 70.5t-121 30t-121 -27.5t-75.5 -67.5t-40 -87.5t-11.5 -85.5z"/>
            <glyph unicode="&#xd5;" horiz-adv-x="1017"
                   d="M90 440v572q0 72 22.5 147.5t71.5 137t129 100.5t195 39q109 0 187.5 -37t130 -97.5t76 -136t24.5 -153.5v-596q0 -98 -31 -177t-86 -135.5t-132 -86t-169 -29.5q-113 0 -192.5 36.5t-130 99t-73 144.5t-22.5 172zM174 1591q35 70 88.5 119t112.5 49q33 0 65.5 -13 t63.5 -29.5t61.5 -30t59.5 -13.5q55 0 116 86l93 -57q-41 -84 -93.5 -126t-107.5 -42q-35 0 -68 13.5t-64.5 28.5t-61 28.5t-56.5 13.5q-31 0 -58.5 -18.5t-60.5 -59.5zM258 1006l2 -564q0 -61 13.5 -115.5t44 -94t78.5 -63.5t116 -24q49 0 93 17.5t76 50.5t51.5 80 t19.5 106v611q0 33 -11.5 78t-39 85.5t-74.5 70.5t-121 30t-121 -27.5t-75.5 -67.5t-40 -87.5t-11.5 -85.5z"/>
            <glyph unicode="&#xd6;" horiz-adv-x="1017"
                   d="M90 440v572q0 72 22.5 147.5t71.5 137t129 100.5t195 39q109 0 187.5 -37t130 -97.5t76 -136t24.5 -153.5v-596q0 -98 -31 -177t-86 -135.5t-132 -86t-169 -29.5q-113 0 -192.5 36.5t-130 99t-73 144.5t-22.5 172zM252 1532v172h162v-172h-162zM258 1006l2 -564 q0 -61 13.5 -115.5t44 -94t78.5 -63.5t116 -24q49 0 93 17.5t76 50.5t51.5 80t19.5 106v611q0 33 -11.5 78t-39 85.5t-74.5 70.5t-121 30t-121 -27.5t-75.5 -67.5t-40 -87.5t-11.5 -85.5zM594 1532v172h160v-172h-160z"/>
            <glyph unicode="&#xd7;" horiz-adv-x="991"
                   d="M117 274l307 308l-299 299l88 90l299 -299l305 307l90 -90l-305 -307l299 -299l-90 -90l-299 299l-307 -306z"/>
            <glyph unicode="&#xd8;" horiz-adv-x="1017"
                   d="M80 43l72 131q-33 57 -47.5 125t-14.5 141v572q0 72 22.5 147.5t71.5 137t129 100.5t195 39q94 0 164.5 -29t122.5 -76l57 105l80 -50l-74 -131q35 -55 51.5 -117.5t16.5 -125.5v-596q0 -98 -31 -177t-86 -135.5t-132 -86t-169 -29.5q-98 0 -172 28.5t-123 77.5l-57 -102 zM258 1006l2 -564v-34.5t4 -32.5l441 794q-29 43 -76 74t-123 31q-74 0 -121 -27.5t-75.5 -67.5t-40 -87.5t-11.5 -85.5zM301 254q29 -51 81 -80t130 -29q49 0 93 17.5t76 50.5t51.5 80t19.5 106v611q0 10 -1 21t-3 24z"/>
            <glyph unicode="&#xd9;" horiz-adv-x="1062"
                   d="M115 414v1011h170v-1017q0 -51 17 -97.5t49 -82t78 -57t103 -21.5q109 0 177.5 68.5t68.5 189.5v1017h172v-1011q0 -98 -30.5 -177t-86 -134.5t-132 -85t-169.5 -29.5q-98 0 -174.5 31.5t-131 88t-83 135.5t-28.5 171zM295 1722l121 125l303 -250l-76 -86z"/>
            <glyph unicode="&#xda;" horiz-adv-x="1062"
                   d="M115 414v1011h170v-1017q0 -51 17 -97.5t49 -82t78 -57t103 -21.5q109 0 177.5 68.5t68.5 189.5v1017h172v-1011q0 -98 -30.5 -177t-86 -134.5t-132 -85t-169.5 -29.5q-98 0 -174.5 31.5t-131 88t-83 135.5t-28.5 171zM358 1569l297 241l111 -120l-340 -201z"/>
            <glyph unicode="&#xdb;" horiz-adv-x="1062"
                   d="M115 414v1011h170v-1017q0 -51 17 -97.5t49 -82t78 -57t103 -21.5q109 0 177.5 68.5t68.5 189.5v1017h172v-1011q0 -98 -30.5 -177t-86 -134.5t-132 -85t-169.5 -29.5q-98 0 -174.5 31.5t-131 88t-83 135.5t-28.5 171zM190 1569l287 252h103l272 -248l-66 -72l-266 164 l-266 -164z"/>
            <glyph unicode="&#xdc;" horiz-adv-x="1062"
                   d="M115 414v1011h170v-1017q0 -51 17 -97.5t49 -82t78 -57t103 -21.5q109 0 177.5 68.5t68.5 189.5v1017h172v-1011q0 -98 -30.5 -177t-86 -134.5t-132 -85t-169.5 -29.5q-98 0 -174.5 31.5t-131 88t-83 135.5t-28.5 171zM287 1532v172h162v-172h-162zM629 1532v172h159 v-172h-159z"/>
            <glyph unicode="&#xdd;" horiz-adv-x="905"
                   d="M14 1425h181q37 -92 75.5 -184t75.5 -184q25 -61 50.5 -133t47.5 -133h13l104 274l148 360h178l-352 -831v-594h-166v594zM293 1569l297 241l110 -120l-340 -201z"/>
            <glyph unicode="&#xde;" horiz-adv-x="991"
                   d="M133 0v1487h170l-4 -328h236q199 0 307 -105.5t108 -322.5q0 -82 -22.5 -158.5t-70.5 -135t-126 -94.5t-188 -36h-244l4 -307h-170zM299 467h233q72 0 119 22.5t76 59.5t40 85t11 99q0 123 -57 194.5t-191 71.5h-231v-532z"/>
            <glyph unicode="&#xdf;" horiz-adv-x="913"
                   d="M109 0v1098q0 180 85 286.5t259 106.5q166 0 247.5 -95.5t81.5 -250.5q0 -92 -28.5 -170t-106.5 -113q63 -27 97 -69.5t50.5 -96t19.5 -115t3 -122.5q0 -90 -12 -174t-48 -149.5t-101.5 -105.5t-174.5 -40h-59v137h41q74 0 111.5 37t53 93t16.5 121.5t1 125.5 q0 51 -7 101t-25.5 90t-50.5 63.5t-81 23.5h-49v144h39q45 0 73.5 18.5t44 48t21.5 66.5t6 71q0 94 -37.5 152.5t-132.5 58.5q-57 0 -90.5 -20.5t-52 -54t-25 -75.5t-6.5 -85v-1106h-163z"/>
            <glyph unicode="&#xe0;" horiz-adv-x="872"
                   d="M94 285q0 135 84 224t268 89h187v125q0 70 -46 108.5t-136 38.5q-59 0 -111.5 -21.5t-75.5 -74.5q-33 18 -64.5 37.5t-64.5 40.5q41 84 126 129t190 45q72 0 135 -15.5t111 -50t76 -93t28 -146.5v-721h-168v74l-8 4q-35 -45 -97.5 -67.5t-142.5 -22.5q-74 0 -129 23.5 t-91 64.5t-53.5 95t-17.5 114zM236 1475l155 51l144 -355l-99 -38zM252 295q0 -68 45 -110t137 -42q86 0 142.5 39t56.5 135v140h-199q-80 0 -131 -38t-51 -124z"/>
            <glyph unicode="&#xe1;" horiz-adv-x="872"
                   d="M94 285q0 135 84 224t268 89h187v125q0 70 -46 108.5t-136 38.5q-59 0 -111.5 -21.5t-75.5 -74.5q-33 18 -64.5 37.5t-64.5 40.5q41 84 126 129t190 45q72 0 135 -15.5t111 -50t76 -93t28 -146.5v-721h-168v74l-8 4q-35 -45 -97.5 -67.5t-142.5 -22.5q-74 0 -129 23.5 t-91 64.5t-53.5 95t-17.5 114zM252 295q0 -68 45 -110t137 -42q86 0 142.5 39t56.5 135v140h-199q-80 0 -131 -38t-51 -124zM426 1171l143 355l156 -51l-201 -342z"/>
            <glyph unicode="&#xe2;" horiz-adv-x="872"
                   d="M94 285q0 135 84 224t268 89h187v125q0 70 -46 108.5t-136 38.5q-59 0 -111.5 -21.5t-75.5 -74.5q-33 18 -64.5 37.5t-64.5 40.5q41 84 126 129t190 45q72 0 135 -15.5t111 -50t76 -93t28 -146.5v-721h-168v74l-8 4q-35 -45 -97.5 -67.5t-142.5 -22.5q-74 0 -129 23.5 t-91 64.5t-53.5 95t-17.5 114zM115 1198l288 299h103l272 -295l-76 -69l-256 204l-256 -207zM252 295q0 -68 45 -110t137 -42q86 0 142.5 39t56.5 135v140h-199q-80 0 -131 -38t-51 -124z"/>
            <glyph unicode="&#xe3;" horiz-adv-x="872"
                   d="M94 285q0 135 84 224t268 89h187v125q0 70 -46 108.5t-136 38.5q-59 0 -111.5 -21.5t-75.5 -74.5q-33 18 -64.5 37.5t-64.5 40.5q41 84 126 129t190 45q72 0 135 -15.5t111 -50t76 -93t28 -146.5v-721h-168v74l-8 4q-35 -45 -97.5 -67.5t-142.5 -22.5q-74 0 -129 23.5 t-91 64.5t-53.5 95t-17.5 114zM131 1243q35 70 88.5 119t112.5 49q33 0 65.5 -13.5t63.5 -29.5t61.5 -29.5t59.5 -13.5q55 0 116 86l93 -57q-41 -84 -93.5 -126t-107.5 -42q-35 0 -68 13t-64.5 28.5t-61 29t-56.5 13.5q-31 0 -58.5 -18.5t-60.5 -59.5zM252 295 q0 -68 45 -110t137 -42q86 0 142.5 39t56.5 135v140h-199q-80 0 -131 -38t-51 -124z"/>
            <glyph unicode="&#xe4;" horiz-adv-x="872"
                   d="M94 285q0 135 84 224t268 89h187v125q0 70 -46 108.5t-136 38.5q-59 0 -111.5 -21.5t-75.5 -74.5q-33 18 -64.5 37.5t-64.5 40.5q41 84 126 129t190 45q72 0 135 -15.5t111 -50t76 -93t28 -146.5v-721h-168v74l-8 4q-35 -45 -97.5 -67.5t-142.5 -22.5q-74 0 -129 23.5 t-91 64.5t-53.5 95t-17.5 114zM197 1214v172h161v-172h-161zM252 295q0 -68 45 -110t137 -42q86 0 142.5 39t56.5 135v140h-199q-80 0 -131 -38t-51 -124zM539 1214v172h159v-172h-159z"/>
            <glyph unicode="&#xe5;" horiz-adv-x="872"
                   d="M94 285q0 135 84 224t268 89h187v125q0 70 -46 108.5t-136 38.5q-59 0 -111.5 -21.5t-75.5 -74.5q-33 18 -64.5 37.5t-64.5 40.5q41 84 126 129t190 45q72 0 135 -15.5t111 -50t76 -93t28 -146.5v-721h-168v74l-8 4q-35 -45 -97.5 -67.5t-142.5 -22.5q-74 0 -129 23.5 t-91 64.5t-53.5 95t-17.5 114zM252 295q0 -68 45 -110t137 -42q86 0 142.5 39t56.5 135v140h-199q-80 0 -131 -38t-51 -124zM268 1300q0 37 14.5 69t39 55.5t57.5 38t72 14.5q35 0 66.5 -14.5t55 -38t38 -55.5t14.5 -69q0 -72 -51 -122t-123 -50q-78 0 -130.5 50.5 t-52.5 121.5zM354 1300q0 -37 28 -62.5t69 -25.5q37 0 63.5 26t26.5 62q0 39 -26.5 66t-63.5 27q-41 0 -69 -27t-28 -66z"/>
            <glyph unicode="&#xe6;" horiz-adv-x="1413"
                   d="M74 285q0 135 84 224t268 89h186v125q0 70 -46 108.5t-136 38.5q-59 0 -111.5 -21.5t-74.5 -74.5q-33 18 -65 37.5t-64 40.5q41 84 126 129t189 45q92 0 170 -25.5t125 -87.5q41 53 102.5 83t151.5 30q172 0 263 -109.5t91 -302.5v-157h-547q0 -68 8.5 -126.5t31 -101.5 t63.5 -67.5t106 -24.5q55 0 102.5 28t76.5 75l131 -72q-41 -90 -121 -135t-183 -45q-113 0 -187.5 33.5t-121.5 109.5q-45 -49 -90 -77.5t-87 -43t-81 -18.5t-69 -4q-74 0 -129.5 23.5t-91 64.5t-53 95t-17.5 114zM231 295q0 -68 45.5 -110t137.5 -42q86 0 142 39t56 135 v140h-198q-80 0 -131.5 -38t-51.5 -124zM791 590h378q0 139 -48 209.5t-140 70.5q-106 0 -146 -75.5t-44 -204.5z"/>
            <glyph unicode="&#xe7;" horiz-adv-x="788"
                   d="M63 528q0 227 92.5 362.5t288.5 135.5q111 0 190 -50t120 -136l-136 -84q-23 53 -67.5 82.5t-104.5 29.5q-68 0 -110.5 -26.5t-66 -72.5t-32 -108.5t-8.5 -136.5t8.5 -142.5t32 -121.5t65.5 -85t109 -32q61 0 105 32t67 73q35 -20 70 -37.5t70 -38.5q-39 -82 -114 -131 t-179 -53l-25 -84q53 -4 88 -20.5t56.5 -41t30 -51.5t8.5 -51q0 -25 -10.5 -53.5t-33 -52t-59.5 -39t-88 -15.5h-28.5t-46 3t-54.5 10.5t-53 19.5l28 76q39 -18 75 -22.5t65 -4.5q35 0 62.5 20.5t27.5 55.5q0 41 -32 65.5t-99 20.5l-37 31l41 137q-94 10 -154.5 53 t-96.5 113.5t-50.5 164t-14.5 205.5z"/>
            <glyph unicode="&#xe8;" horiz-adv-x="868"
                   d="M76 506q0 96 15 189t55 167t110 119t178 45q172 0 263 -109.5t91 -302.5v-157h-546q0 -68 8 -126.5t30.5 -101.5t63.5 -67.5t107 -24.5q55 0 101 35t75 82l135 -72q-41 -90 -122 -142t-183 -52t-174 28.5t-118 91t-67.5 161t-21.5 237.5zM223 1475l156 51l143 -355 l-98 -38zM246 590h379q0 139 -48.5 209.5t-140.5 70.5q-106 0 -146 -75.5t-44 -204.5z"/>
            <glyph unicode="&#xe9;" horiz-adv-x="868"
                   d="M76 506q0 96 15 189t55 167t110 119t178 45q172 0 263 -109.5t91 -302.5v-157h-546q0 -68 8 -126.5t30.5 -101.5t63.5 -67.5t107 -24.5q55 0 101 35t75 82l135 -72q-41 -90 -122 -142t-183 -52t-174 28.5t-118 91t-67.5 161t-21.5 237.5zM246 590h379q0 139 -48.5 209.5 t-140.5 70.5q-106 0 -146 -75.5t-44 -204.5zM356 1171l144 355l155 -51l-200 -342z"/>
            <glyph unicode="&#xea;" horiz-adv-x="868"
                   d="M76 506q0 96 15 189t55 167t110 119t178 45q172 0 263 -109.5t91 -302.5v-157h-546q0 -68 8 -126.5t30.5 -101.5t63.5 -67.5t107 -24.5q55 0 101 35t75 82l135 -72q-41 -90 -122 -142t-183 -52t-174 28.5t-118 91t-67.5 161t-21.5 237.5zM106 1198l289 299h103l272 -295 l-76 -69l-256 204l-256 -207zM246 590h379q0 139 -48.5 209.5t-140.5 70.5q-106 0 -146 -75.5t-44 -204.5z"/>
            <glyph unicode="&#xeb;" horiz-adv-x="868"
                   d="M76 506q0 96 15 189t55 167t110 119t178 45q172 0 263 -109.5t91 -302.5v-157h-546q0 -68 8 -126.5t30.5 -101.5t63.5 -67.5t107 -24.5q55 0 101 35t75 82l135 -72q-41 -90 -122 -142t-183 -52t-174 28.5t-118 91t-67.5 161t-21.5 237.5zM190 1214v172h162v-172h-162z M246 590h379q0 139 -48.5 209.5t-140.5 70.5q-106 0 -146 -75.5t-44 -204.5zM532 1214v172h160v-172h-160z"/>
            <glyph unicode="&#xec;" horiz-adv-x="409"
                   d="M-43 1475l156 51l143 -355l-98 -38zM119 0v1014h166v-1014h-166z"/>
            <glyph unicode="&#xed;" horiz-adv-x="409"
                   d="M119 0v1014h166v-1014h-166zM121 1171l143 355l156 -51l-201 -342z"/>
            <glyph unicode="&#xee;" horiz-adv-x="561"
                   d="M-51 1198l289 299h102l272 -295l-75 -69l-256 204l-256 -207zM197 0v1014h165v-1014h-165z"/>
            <glyph unicode="&#xef;" horiz-adv-x="419"
                   d="M-41 1214v172h162v-172h-162zM127 0v1014h166v-1014h-166zM301 1214v172h160v-172h-160z"/>
            <glyph unicode="&#xf0;"
                   d="M72 463q0 102 15 196.5t55 165t109 112.5t175 42q18 0 47 -4t60.5 -16.5t61.5 -34t52 -56.5h6q-2 72 -11 154t-42 137l-129 -92l-49 70l129 94q-35 47 -103.5 79.5t-158.5 49.5l22 133q78 -8 136.5 -24.5t101.5 -39t74.5 -49t54.5 -51.5q35 27 69.5 51.5t69.5 51.5 l55 -70l-143 -105q49 -78 66.5 -231.5t17.5 -386.5q0 -127 -10 -245t-48 -208t-115 -144t-210 -54q-100 0 -168.5 31.5t-110.5 92t-60.5 148.5t-18.5 203zM236 475q0 -162 40.5 -251t155.5 -89q45 0 83 17.5t65.5 59.5t42 110.5t14.5 173.5q0 182 -50.5 258.5t-148.5 76.5 q-41 0 -75.5 -13t-62.5 -52t-45 -108.5t-19 -182.5z"/>
            <glyph unicode="&#xf1;" horiz-adv-x="892"
                   d="M94 0v1014h166v-113h6q43 59 106.5 91t137.5 32q61 0 113.5 -21.5t90.5 -61.5t60.5 -96.5t22.5 -127.5v-717h-166v662q0 92 -47 144t-140 52q-84 0 -135 -54t-51 -147v-657h-164zM96 1243q35 70 88.5 119t112.5 49q33 0 65.5 -13.5t63.5 -29.5t61.5 -29.5t59.5 -13.5 q55 0 117 86l92 -57q-41 -84 -93.5 -126t-107.5 -42q-35 0 -67.5 13t-64.5 28.5t-61.5 29t-56.5 13.5q-31 0 -58.5 -18.5t-60.5 -59.5z"/>
            <glyph unicode="&#xf2;" horiz-adv-x="897"
                   d="M82 500q0 96 9 184t32 143q41 92 125 145.5t207 53.5q121 0 190.5 -48t110.5 -120q14 -25 24.5 -64.5t16.5 -88t9 -100.5t3 -99q0 -29 -2 -70t-7 -86t-11.5 -86t-14.5 -65q-18 -59 -54 -100.5t-82 -66t-98.5 -35.5t-107.5 -11q-117 0 -191.5 49t-111.5 127 q-27 55 -37 146t-10 192zM211 1475l156 51l143 -355l-98 -38zM246 481q0 -68 3 -127t19 -100q23 -55 66 -86t108 -31q63 0 111.5 31t71.5 98q10 29 14 97.5t4 152.5q0 72 -4 136.5t-16 101.5q-23 61 -68 92t-104 31t-106.5 -29t-70.5 -86q-14 -39 -21 -111.5t-7 -169.5z"/>
            <glyph unicode="&#xf3;" horiz-adv-x="897"
                   d="M82 500q0 96 9 184t32 143q41 92 125 145.5t207 53.5q121 0 190.5 -48t110.5 -120q14 -25 24.5 -64.5t16.5 -88t9 -100.5t3 -99q0 -29 -2 -70t-7 -86t-11.5 -86t-14.5 -65q-18 -59 -54 -100.5t-82 -66t-98.5 -35.5t-107.5 -11q-117 0 -191.5 49t-111.5 127 q-27 55 -37 146t-10 192zM246 481q0 -68 3 -127t19 -100q23 -55 66 -86t108 -31q63 0 111.5 31t71.5 98q10 29 14 97.5t4 152.5q0 72 -4 136.5t-16 101.5q-23 61 -68 92t-104 31t-106.5 -29t-70.5 -86q-14 -39 -21 -111.5t-7 -169.5zM352 1171l144 355l155 -51l-200 -342z "/>
            <glyph unicode="&#xf4;" horiz-adv-x="897"
                   d="M82 500q0 96 9 184t32 143q41 92 125 145.5t207 53.5q121 0 190.5 -48t110.5 -120q14 -25 24.5 -64.5t16.5 -88t9 -100.5t3 -99q0 -29 -2 -70t-7 -86t-11.5 -86t-14.5 -65q-18 -59 -54 -100.5t-82 -66t-98.5 -35.5t-107.5 -11q-117 0 -191.5 49t-111.5 127 q-27 55 -37 146t-10 192zM109 1198l288 299h103l272 -295l-76 -69l-256 204l-256 -207zM246 481q0 -68 3 -127t19 -100q23 -55 66 -86t108 -31q63 0 111.5 31t71.5 98q10 29 14 97.5t4 152.5q0 72 -4 136.5t-16 101.5q-23 61 -68 92t-104 31t-106.5 -29t-70.5 -86 q-14 -39 -21 -111.5t-7 -169.5z"/>
            <glyph unicode="&#xf5;" horiz-adv-x="897"
                   d="M82 500q0 96 9 184t32 143q41 92 125 145.5t207 53.5q121 0 190.5 -48t110.5 -120q14 -25 24.5 -64.5t16.5 -88t9 -100.5t3 -99q0 -29 -2 -70t-7 -86t-11.5 -86t-14.5 -65q-18 -59 -54 -100.5t-82 -66t-98.5 -35.5t-107.5 -11q-117 0 -191.5 49t-111.5 127 q-27 55 -37 146t-10 192zM115 1243q35 70 88 119t112 49q33 0 66 -13.5t63.5 -29.5t61.5 -29.5t59 -13.5q55 0 117 86l92 -57q-41 -84 -93 -126t-108 -42q-35 0 -67.5 13t-64 28.5t-61.5 29t-56 13.5q-31 0 -58.5 -18.5t-60.5 -59.5zM246 481q0 -68 3 -127t19 -100 q23 -55 66 -86t108 -31q63 0 111.5 31t71.5 98q10 29 14 97.5t4 152.5q0 72 -4 136.5t-16 101.5q-23 61 -68 92t-104 31t-106.5 -29t-70.5 -86q-14 -39 -21 -111.5t-7 -169.5z"/>
            <glyph unicode="&#xf6;" horiz-adv-x="897"
                   d="M82 500q0 96 9 184t32 143q41 92 125 145.5t207 53.5q121 0 190.5 -48t110.5 -120q14 -25 24.5 -64.5t16.5 -88t9 -100.5t3 -99q0 -29 -2 -70t-7 -86t-11.5 -86t-14.5 -65q-18 -59 -54 -100.5t-82 -66t-98.5 -35.5t-107.5 -11q-117 0 -191.5 49t-111.5 127 q-27 55 -37 146t-10 192zM190 1214v172h162v-172h-162zM246 481q0 -68 3 -127t19 -100q23 -55 66 -86t108 -31q63 0 111.5 31t71.5 98q10 29 14 97.5t4 152.5q0 72 -4 136.5t-16 101.5q-23 61 -68 92t-104 31t-106.5 -29t-70.5 -86q-14 -39 -21 -111.5t-7 -169.5zM532 1214 v172h160v-172h-160z"/>
            <glyph unicode="&#xf7;"
                   d="M39 539v127h831v-127h-831zM344 256q0 47 33 79t80 32q45 0 77.5 -32t32.5 -79t-32.5 -80t-77.5 -33q-47 0 -80 33t-33 80zM344 948q0 47 33 80t80 33q45 0 77.5 -33t32.5 -80t-32.5 -79.5t-77.5 -32.5q-47 0 -80 32.5t-33 79.5z"/>
            <glyph unicode="&#xf8;" horiz-adv-x="897"
                   d="M82 51l59 88l-12 23q-27 55 -37 146t-10 192q0 96 9 184t32 143q41 92 125 145.5t207 53.5q74 0 131 -21.5t98 -56.5l57 84l72 -53l-68 -100l13 -21q14 -27 24.5 -66.5t16.5 -88t8 -99.5t2 -98q0 -29 -2 -70t-7 -86t-11.5 -86t-14.5 -65q-18 -59 -54 -100.5t-82 -66 t-98.5 -35.5t-107.5 -11q-78 0 -136 21.5t-99 60.5l-47 -70zM246 481q0 -47 1 -92t7 -82l338 504q-25 33 -61.5 49.5t-79.5 16.5q-59 0 -105.5 -29t-71.5 -86q-16 -37 -22 -110.5t-6 -170.5zM291 209q49 -72 151 -72q63 0 111.5 31t71.5 98q10 29 14 97.5t4 152.5 q0 53 -2 104.5t-8 90.5z"/>
            <glyph unicode="&#xf9;" horiz-adv-x="905"
                   d="M94 295v717h166v-662q0 -92 50 -146t136 -54q84 0 135.5 55t51.5 149v658h164v-1012h-164v109h-6q-43 -61 -107.5 -91t-136.5 -30q-61 0 -114.5 21.5t-91.5 61.5t-60.5 96t-22.5 128zM233 1475l156 51l143 -355l-98 -38z"/>
            <glyph unicode="&#xfa;" horiz-adv-x="905"
                   d="M94 295v717h166v-662q0 -92 50 -146t136 -54q84 0 135.5 55t51.5 149v658h164v-1012h-164v109h-6q-43 -61 -107.5 -91t-136.5 -30q-61 0 -114.5 21.5t-91.5 61.5t-60.5 96t-22.5 128zM362 1171l144 355l156 -51l-201 -342z"/>
            <glyph unicode="&#xfb;" horiz-adv-x="905"
                   d="M94 295v717h166v-662q0 -92 50 -146t136 -54q84 0 135.5 55t51.5 149v658h164v-1012h-164v109h-6q-43 -61 -107.5 -91t-136.5 -30q-61 0 -114.5 21.5t-91.5 61.5t-60.5 96t-22.5 128zM109 1198l288 299h103l272 -295l-76 -69l-256 204l-256 -207z"/>
            <glyph unicode="&#xfc;" horiz-adv-x="905"
                   d="M94 295v717h166v-662q0 -92 50 -146t136 -54q84 0 135.5 55t51.5 149v658h164v-1012h-164v109h-6q-43 -61 -107.5 -91t-136.5 -30q-61 0 -114.5 21.5t-91.5 61.5t-60.5 96t-22.5 128zM184 1214v172h162v-172h-162zM526 1214v172h160v-172h-160z"/>
            <glyph unicode="&#xfd;" horiz-adv-x="786"
                   d="M2 1014h176l125 -406l96 -342h7l90 342l118 406h172l-364 -1217q-33 -109 -100.5 -160t-163.5 -51h-54v144h50q96 0 131 145l43 150zM342 1171l143 355l156 -51l-201 -342z"/>
            <glyph unicode="&#xfe;" horiz-adv-x="884"
                   d="M90 -410v1846h166v-516q2 0 2 -1t2 -1q45 57 102.5 82.5t129.5 25.5q100 0 159.5 -42t92 -112.5t43 -165t10.5 -196.5q0 -96 -11.5 -189.5t-46 -167t-98 -118.5t-166.5 -45q-127 0 -215 100h-4v-500h-166zM254 481q0 -55 5 -112.5t23.5 -105.5t55.5 -78.5t100 -30.5 t100 28.5t57.5 76.5t27 111.5t6.5 135.5q0 74 -6.5 139.5t-25.5 114.5t-56 78.5t-101 29.5q-74 0 -112.5 -37.5t-55 -95t-17.5 -126t-1 -128.5z"/>
            <glyph unicode="&#xff;" horiz-adv-x="786"
                   d="M2 1014h176l125 -406l96 -342h7l90 342l118 406h172l-364 -1217q-33 -109 -100.5 -160t-163.5 -51h-54v144h50q96 0 131 145l43 150zM150 1214v172h161v-172h-161zM492 1214v172h159v-172h-159z"/>
            <glyph unicode="&#x152;" horiz-adv-x="1462"
                   d="M90 436v580q0 72 22.5 146.5t71.5 135t129 99.5t195 39q29 0 54.5 -3t49.5 -8h756v-159h-586v-467h502v-154h-502v-479h586v-166h-747q-53 -12 -113 -12q-113 0 -192.5 36.5t-130 98t-73 142.5t-22.5 171zM260 438q0 -61 13.5 -114.5t42 -92t76.5 -61.5t116 -23 q53 0 104 23v1083q-47 20 -104 21q-70 0 -117 -24.5t-76.5 -62.5t-42 -83t-12.5 -84v-582z"/>
            <glyph unicode="&#x153;" horiz-adv-x="1437"
                   d="M82 500q0 96 9 184t32 143q41 92 125 145.5t207 53.5q98 0 166.5 -36t113.5 -95q41 59 105.5 95t163.5 36q172 0 263 -109.5t91 -302.5v-157h-547q0 -68 8 -126.5t30.5 -101.5t63.5 -67.5t107 -24.5q55 0 101 35t75 82l135 -72q-41 -90 -122 -142t-183 -52 q-106 0 -180 30.5t-121 98.5q-51 -72 -129 -101.5t-164 -29.5q-117 0 -191.5 49t-111.5 127q-27 55 -37 146t-10 192zM246 481q0 -68 3 -127t19 -100q23 -55 66 -86t108 -31q63 0 111.5 35t71.5 102q10 29 14 93.5t4 148.5q0 72 -4 136.5t-16 101.5q-23 61 -68 92t-104 31 t-105.5 -29t-71.5 -86q-16 -37 -22 -110.5t-6 -170.5zM815 590h379q0 139 -48 209.5t-140 70.5q-106 0 -146.5 -75.5t-44.5 -204.5z"/>
            <glyph unicode="&#x178;" horiz-adv-x="905"
                   d="M14 1425h181q37 -92 75.5 -184t75.5 -184q25 -61 50.5 -133t47.5 -133h13l104 274l148 360h178l-352 -831v-594h-166v594zM201 1532v172h161v-172h-161zM543 1532v172h159v-172h-159z"/>
            <glyph unicode="&#x2c6;" horiz-adv-x="1005" d="M180 1198l289 299h102l273 -295l-76 -69l-256 204l-256 -207z"/>
            <glyph unicode="&#x2dc;" horiz-adv-x="874"
                   d="M109 1243q35 70 88 119t112 49q33 0 66 -13.5t63.5 -29.5t61 -29.5t59.5 -13.5q55 0 117 86l92 -57q-41 -84 -93 -126t-108 -42q-35 0 -67.5 13t-64.5 28.5t-61.5 29t-56.5 13.5q-31 0 -58.5 -18.5t-59.5 -59.5z"/>
            <glyph unicode="&#x2000;" horiz-adv-x="923"/>
            <glyph unicode="&#x2001;" horiz-adv-x="1847"/>
            <glyph unicode="&#x2002;" horiz-adv-x="923"/>
            <glyph unicode="&#x2003;" horiz-adv-x="1847"/>
            <glyph unicode="&#x2004;" horiz-adv-x="615"/>
            <glyph unicode="&#x2005;" horiz-adv-x="461"/>
            <glyph unicode="&#x2006;" horiz-adv-x="307"/>
            <glyph unicode="&#x2007;" horiz-adv-x="307"/>
            <glyph unicode="&#x2008;" horiz-adv-x="230"/>
            <glyph unicode="&#x2009;" horiz-adv-x="369"/>
            <glyph unicode="&#x200a;" horiz-adv-x="102"/>
            <glyph unicode="&#x2010;" horiz-adv-x="755" d="M104 455v145h560v-145h-560z"/>
            <glyph unicode="&#x2011;" horiz-adv-x="755" d="M104 455v145h560v-145h-560z"/>
            <glyph unicode="&#x2012;" horiz-adv-x="755" d="M104 455v145h560v-145h-560z"/>
            <glyph unicode="&#x2013;" horiz-adv-x="1024" d="M41 471v156h942v-156h-942z"/>
            <glyph unicode="&#x2014;" horiz-adv-x="2048" d="M41 471v156h1966v-156h-1966z"/>
            <glyph unicode="&#x2018;" horiz-adv-x="456" d="M127 1030v209l104 234h99l-58 -230h50v-213h-195z"/>
            <glyph unicode="&#x2019;" horiz-adv-x="456" d="M127 1030l57 232h-51v213h197v-209l-107 -236h-96z"/>
            <glyph unicode="&#x201a;" horiz-adv-x="456" d="M117 -238l57 230h-51v213h194v-209l-104 -234h-96z"/>
            <glyph unicode="&#x201c;" horiz-adv-x="614"
                   d="M76 1030v209l104 234h96l-57 -230h51v-213h-194zM342 1030v209l104 234h99l-58 -230h50v-213h-195z"/>
            <glyph unicode="&#x201d;" horiz-adv-x="614"
                   d="M86 1030l57 232h-49v213h195v-209l-105 -236h-98zM354 1030l58 232h-52v213h195v-209l-104 -236h-97z"/>
            <glyph unicode="&#x201e;" horiz-adv-x="759"
                   d="M117 -238l57 230h-51v213h194v-209l-104 -234h-96zM434 -238l58 230h-52v213h195v-209l-105 -234h-96z"/>
            <glyph unicode="&#x2022;" horiz-adv-x="839"
                   d="M162 571q0 53 20.5 101.5t55 84.5t82 56.5t102.5 20.5t102 -20.5t83 -56.5t56.5 -84.5t20.5 -101.5t-20.5 -101t-56.5 -83t-83 -55.5t-102 -20.5t-102.5 20.5t-82 55.5t-55 83t-20.5 101z"/>
            <glyph unicode="&#x2026;" horiz-adv-x="1449"
                   d="M139 0v207h195v-207h-195zM621 0v207h194v-207h-194zM1112 0v207h195v-207h-195z"/>
            <glyph unicode="&#x202f;" horiz-adv-x="369"/>
            <glyph unicode="&#x2039;" horiz-adv-x="591" d="M90 475l240 381h159l-235 -381l235 -381h-159z"/>
            <glyph unicode="&#x203a;" horiz-adv-x="571" d="M92 94l234 381l-234 381h160l240 -381l-240 -381h-160z"/>
            <glyph unicode="&#x205f;" horiz-adv-x="461"/>
            <glyph unicode="&#x20ac;"
                   d="M29 547v106h80v121h-80v105h80v141q0 90 26.5 167t76.5 132t124 86t166 31q139 0 241.5 -75t137.5 -210l-164 -47q-23 72 -74 123t-141 51q-59 0 -101.5 -20.5t-70 -56.5t-39.5 -82t-12 -95v-145h362v-105h-362v-121h362v-106h-362v-158q0 -49 14 -93t41.5 -78 t69.5 -54.5t98 -20.5q92 0 144 49.5t81 129.5l154 -48q-35 -135 -136.5 -210.5t-242.5 -75.5q-92 0 -165 29.5t-123 85t-77.5 133t-27.5 172.5v139h-80z"/>
            <glyph unicode="&#x2122;" horiz-adv-x="1550"
                   d="M76 1307v118h555v-118h-213v-699h-129v699h-213zM733 606v817h127l227 -508l224 508h125v-817h-129l-2 492l-168 -359h-109l-166 361h-2v-494h-127z"/>
            <glyph unicode="&#x25fc;" horiz-adv-x="1013" d="M0 0v1014h1014v-1014h-1014z"/>
            </font>
</defs>
</svg>
